<?xml version="1.0" encoding="UTF-8"?>
<!DOCTYPE svg PUBLIC "-//W3C//DTD SVG 1.1//EN" "http://www.w3.org/Graphics/SVG/1.1/DTD/svg11.dtd">
<svg xmlns="http://www.w3.org/2000/svg" version="1.1" width="256px" height="73px" style="shape-rendering:geometricPrecision; text-rendering:geometricPrecision; image-rendering:optimizeQuality; fill-rule:evenodd; clip-rule:evenodd" xmlns:xlink="http://www.w3.org/1999/xlink">
<g><path style="opacity:1" fill="#317b83" d="M 158.5,2.5 C 159.672,6.83812 159.505,11.1715 158,15.5C 154.974,24.55 151.14,33.2167 146.5,41.5C 146.97,42.463 147.637,42.463 148.5,41.5C 148.877,43.8241 149.877,44.4908 151.5,43.5C 149.081,48.0086 146.414,52.342 143.5,56.5C 140.146,63.4858 137.479,63.1525 135.5,55.5C 133.739,56.0351 132.406,57.0351 131.5,58.5C 127.417,60.6957 123.084,61.5291 118.5,61C 115.223,57.2721 112.89,53.1054 111.5,48.5C 111.893,51.5133 111.226,54.1799 109.5,56.5C 105.278,58.4437 100.945,60.1103 96.5,61.5C 94.3069,61.2814 92.3069,60.6148 90.5,59.5C 90.1667,59.5 89.8333,59.5 89.5,59.5C 89.189,58.5222 88.5223,57.8555 87.5,57.5C 85.9246,58.4565 84.258,59.1231 82.5,59.5C 83.179,57.4121 83.5123,55.4121 83.5,53.5C 83.811,52.5222 84.4777,51.8555 85.5,51.5C 86.2289,45.6596 86.8956,39.8263 87.5,34C 87.3552,33.228 87.0219,32.5613 86.5,32C 83.854,31.5026 81.1873,31.3359 78.5,31.5C 78.33,30.1779 78.6634,29.0113 79.5,28C 82.4816,27.502 85.4816,27.3354 88.5,27.5C 89.4611,19.442 92.4611,12.2753 97.5,6C 103.206,5.36185 106.206,8.02852 106.5,14C 105.725,16.8224 105.058,19.6557 104.5,22.5C 104.672,23.4916 104.338,24.1583 103.5,24.5C 101.102,25.8823 100.935,27.549 103,29.5C 106.267,27.8989 109.767,27.0655 113.5,27C 115.265,21.0401 117.432,15.2067 120,9.5C 122.342,5.67002 125.508,4.67002 129.5,6.5C 131.806,11.2815 132.139,16.2815 130.5,21.5C 130.771,23.3797 130.104,24.713 128.5,25.5C 127.522,25.811 126.855,26.4777 126.5,27.5C 130.445,28.4909 134.445,28.8242 138.5,28.5C 138.763,18.202 142.429,9.36867 149.5,2C 152.592,1.26423 155.592,1.43089 158.5,2.5 Z M 110.5,36.5 C 110.823,40.226 110.489,43.8927 109.5,47.5C 106.438,50.0278 103.104,52.0278 99.5,53.5C 97.1104,53.3152 96.1104,51.9818 96.5,49.5C 96.9191,45.3887 97.7524,41.3887 99,37.5C 102.73,36.5399 106.563,36.2065 110.5,36.5 Z M 135.5,36.5 C 135.132,40.1222 135.132,43.6222 135.5,47C 131.954,50.7732 127.62,52.9399 122.5,53.5C 122.334,48.8215 122.501,44.1548 123,39.5C 123.692,38.9747 124.192,38.3081 124.5,37.5C 128.107,36.5108 131.774,36.1774 135.5,36.5 Z"/></g>
<g><path style="opacity:0.693" fill="#100c0b" d="M 158.5,0.5 C 161.84,2.48193 163.507,5.48193 163.5,9.5C 162.258,16.7264 159.925,23.5597 156.5,30C 156.728,30.3988 157.062,30.5654 157.5,30.5C 155.563,31.9314 153.73,33.5981 152,35.5C 154.629,28.2892 157.296,20.9558 160,13.5C 160.667,10.1667 160.667,6.83333 160,3.5C 159.617,2.94404 159.117,2.61071 158.5,2.5C 158.5,1.83333 158.5,1.16667 158.5,0.5 Z"/></g>
<g><path style="opacity:0.984" fill="#7f8889" d="M 45.5,9.5 C 45.5,10.1667 45.5,10.8333 45.5,11.5C 38.9829,5.28691 31.3162,3.28691 22.5,5.5C 21.8333,5.5 21.1667,5.5 20.5,5.5C 28.2599,2.54402 35.9265,3.04402 43.5,7C 44.3805,7.7083 45.0472,8.54163 45.5,9.5 Z"/></g>
<g><path style="opacity:1" fill="#317a82" d="M 45.5,11.5 C 50.6047,23.3038 50.7714,35.3038 46,47.5C 44.1401,51.2198 42.3068,54.8864 40.5,58.5C 39.5,61.5 37.5,63.5 34.5,64.5C 27.7104,67.7382 20.7104,68.2382 13.5,66C 11.3911,64.8589 9.55779,63.3589 8,61.5C 7.53566,62.0944 7.36899,62.7611 7.5,63.5C 6.83333,63.5 6.5,63.1667 6.5,62.5C 6.5,61.8333 6.5,61.1667 6.5,60.5C 5.95531,58.4068 5.12197,56.4068 4,54.5C 3.51722,55.448 3.35055,56.448 3.5,57.5C 2.07619,55.4855 1.40953,53.1522 1.5,50.5C 0.0442602,34.3696 5.04426,20.5363 16.5,9C 18.7274,8.05898 20.7274,6.89232 22.5,5.5C 31.3162,3.28691 38.9829,5.28691 45.5,11.5 Z M 39.5,18.5 C 42.0885,30.4267 40.2552,41.76 34,52.5C 29.6812,58.7725 24.1812,60.4392 17.5,57.5C 12.6773,51.2068 11.5107,44.2068 14,36.5C 15.7973,27.3917 20.6306,20.5584 28.5,16C 32.7414,14.8118 36.4081,15.6451 39.5,18.5 Z"/></g>
<g><path style="opacity:0.668" fill="#0b0808" d="M 103.5,4.5 C 108.056,6.58346 110.389,10.2501 110.5,15.5C 109.926,19.4769 108.592,23.1436 106.5,26.5C 103.163,28.354 102.163,27.6874 103.5,24.5C 104.338,24.1583 104.672,23.4916 104.5,22.5C 108.736,16.2797 108.403,10.2797 103.5,4.5 Z"/></g>
<g><path style="opacity:0.654" fill="#161313" d="M 129.5,4.5 C 133.637,6.71551 135.637,10.2155 135.5,15C 135.164,19.5215 133.83,23.6882 131.5,27.5C 129.821,27.7148 128.821,27.0481 128.5,25.5C 130.104,24.713 130.771,23.3797 130.5,21.5C 132.033,19.3655 132.7,16.8655 132.5,14C 133.012,10.737 132.012,8.23705 129.5,6.5C 129.5,5.83333 129.5,5.16667 129.5,4.5 Z"/></g>
<g><path style="opacity:0.643" fill="#93a2a4" d="M 150.5,-0.5 C 152.833,-0.5 155.167,-0.5 157.5,-0.5C 157.5,0.166667 157.833,0.5 158.5,0.5C 158.5,1.16667 158.5,1.83333 158.5,2.5C 155.592,1.43089 152.592,1.26423 149.5,2C 142.429,9.36867 138.763,18.202 138.5,28.5C 134.445,28.8242 130.445,28.4909 126.5,27.5C 126.855,26.4777 127.522,25.811 128.5,25.5C 128.821,27.0481 129.821,27.7148 131.5,27.5C 133.167,27.5 134.833,27.5 136.5,27.5C 137.2,15.9977 141.867,6.66439 150.5,-0.5 Z"/></g>
<g><path style="opacity:1" fill="#8da1a3" d="M 20.5,5.5 C 21.1667,5.5 21.8333,5.5 22.5,5.5C 20.7274,6.89232 18.7274,8.05898 16.5,9C 5.04426,20.5363 0.0442602,34.3696 1.5,50.5C 0.833333,49.1667 0.166667,47.8333 -0.5,46.5C -0.5,43.8333 -0.5,41.1667 -0.5,38.5C 1.2401,26.5224 6.57343,16.3558 15.5,8C 17.0779,6.9055 18.7446,6.07217 20.5,5.5 Z"/></g>
<g><path style="opacity:1" fill="#97b7bb" d="M 129.5,6.5 C 132.012,8.23705 133.012,10.737 132.5,14C 132.7,16.8655 132.033,19.3655 130.5,21.5C 132.139,16.2815 131.806,11.2815 129.5,6.5 Z"/></g>
<g><path style="opacity:0.712" fill="#0c0807" d="M 27.5,12.5 C 30.6074,12.3512 33.6074,12.8512 36.5,14C 38.1412,15.129 39.1412,16.629 39.5,18.5C 36.4081,15.6451 32.7414,14.8118 28.5,16C 20.6306,20.5584 15.7973,27.3917 14,36.5C 11.5107,44.2068 12.6773,51.2068 17.5,57.5C 14.5479,56.6411 12.7146,54.6411 12,51.5C 9.87688,44.393 10.2102,37.393 13,30.5C 14.4538,27.9289 15.6205,25.2622 16.5,22.5C 19.5579,18.4754 23.2245,15.1421 27.5,12.5 Z"/></g>
<g><path style="opacity:0.939" fill="#1e1918" d="M 100.5,13.5 C 99.8004,17.2373 98.8004,20.9039 97.5,24.5C 96.6618,24.8417 96.3284,25.5084 96.5,26.5C 95.7611,26.631 95.0944,26.4643 94.5,26C 95.713,23.3135 96.3797,20.4802 96.5,17.5C 97.393,15.703 98.7263,14.3696 100.5,13.5 Z"/></g>
<g><path style="opacity:0.904" fill="#1c1716" d="M 124.5,21.5 C 123.326,22.5137 122.66,23.847 122.5,25.5C 121.637,26.463 120.97,26.463 120.5,25.5C 121.488,22.5499 122.321,19.5499 123,16.5C 123.669,13.7326 124.836,13.2326 126.5,15C 125.391,17.0466 124.724,19.2133 124.5,21.5 Z"/></g>
<g><path style="opacity:0.672" fill="#0c0909" d="M 45.5,9.5 C 49.52,12.863 52.02,17.1963 53,22.5C 55.2063,40.8978 49.3729,56.0645 35.5,68C 32.1068,69.62 28.7735,71.12 25.5,72.5C 23.8333,72.5 22.1667,72.5 20.5,72.5C 16.4339,70.6306 12.4339,68.4639 8.5,66C 7.74756,65.3292 7.41423,64.4959 7.5,63.5C 13.9865,68.3195 21.3199,69.8195 29.5,68C 31.5844,67.3028 33.2511,66.1361 34.5,64.5C 37.5,63.5 39.5,61.5 40.5,58.5C 49.107,47.7551 52.607,35.4217 51,21.5C 50.3708,17.3935 48.5375,14.0601 45.5,11.5C 45.5,10.8333 45.5,10.1667 45.5,9.5 Z"/></g>
<g><path style="opacity:0.749" fill="#96afb2" d="M 97.5,24.5 C 98.8004,20.9039 99.8004,17.2373 100.5,13.5C 99.537,12.6365 99.537,11.9698 100.5,11.5C 101.415,12.3279 102.081,13.3279 102.5,14.5C 101.314,18.2048 99.6478,21.5381 97.5,24.5 Z"/></g>
<g><path style="opacity:1" fill="#92b4b8" d="M 96.5,17.5 C 96.3797,20.4802 95.713,23.3135 94.5,26C 95.0944,26.4643 95.7611,26.631 96.5,26.5C 95.4821,29.0279 94.4821,28.8612 93.5,26C 94.1339,22.9221 95.1339,20.0888 96.5,17.5 Z"/></g>
<g><path style="opacity:0.725" fill="#97adaf" d="M 151.5,8.5 C 152.992,5.92646 153.992,6.2598 154.5,9.5C 152.319,19.8556 148.486,29.5223 143,38.5C 143.199,32.8569 143.866,27.1902 145,21.5C 146.143,16.5469 148.31,12.2136 151.5,8.5 Z"/></g>
<g><path style="opacity:0.831" fill="#140e0d" d="M 151.5,8.5 C 152.239,8.36899 152.906,8.53566 153.5,9C 152.421,12.1496 151.421,15.3163 150.5,18.5C 148.991,23.1746 147.158,27.8413 145,32.5C 145.599,24.1063 147.766,16.1063 151.5,8.5 Z"/></g>
<g><path style="opacity:1" fill="#92a9ac" d="M 124.5,21.5 C 124.724,19.2133 125.391,17.0466 126.5,15C 124.836,13.2326 123.669,13.7326 123,16.5C 122.321,19.5499 121.488,22.5499 120.5,25.5C 120.97,26.463 121.637,26.463 122.5,25.5C 121.321,29.2676 120.321,29.2676 119.5,25.5C 119.989,21.0393 121.322,16.8727 123.5,13C 124.793,12.51 126.127,12.3433 127.5,12.5C 127.868,16.0443 126.868,19.0443 124.5,21.5 Z"/></g>
<g><path style="opacity:0.941" fill="#91a5a7" d="M 129.5,4.5 C 129.5,5.16667 129.5,5.83333 129.5,6.5C 125.508,4.67002 122.342,5.67002 120,9.5C 117.432,15.2067 115.265,21.0401 113.5,27C 109.767,27.0655 106.267,27.8989 103,29.5C 100.935,27.549 101.102,25.8823 103.5,24.5C 102.163,27.6874 103.163,28.354 106.5,26.5C 108.5,26.5 110.5,26.5 112.5,26.5C 113.372,20.0506 115.539,14.0506 119,8.5C 121.618,4.42737 125.118,3.09404 129.5,4.5 Z"/></g>
<g><path style="opacity:0.71" fill="#050202" d="M 215.5,31.5 C 216.496,31.4142 217.329,31.7476 218,32.5C 218.607,36.5369 218.44,40.5369 217.5,44.5C 216.833,44.5 216.167,44.5 215.5,44.5C 216.304,40.0888 216.304,35.7555 215.5,31.5 Z"/></g>
<g><path style="opacity:1" fill="#2d7981" d="M 187.5,34.5 C 188.921,38.6414 188.588,42.6414 186.5,46.5C 185.415,48.5869 183.749,49.9202 181.5,50.5C 177.657,50.1908 176.324,51.6908 177.5,55C 184.275,55.5357 190.108,53.3691 195,48.5C 195.599,42.7112 197.099,37.2112 199.5,32C 200.448,31.5172 201.448,31.3505 202.5,31.5C 202.183,34.5719 202.516,37.5719 203.5,40.5C 204.288,39.2299 205.288,38.2299 206.5,37.5C 205.454,39.7849 205.454,42.1183 206.5,44.5C 204.09,49.8755 201.757,55.3755 199.5,61C 198.5,61.6667 197.5,61.6667 196.5,61C 195.624,59.414 194.624,57.914 193.5,56.5C 192.478,56.8555 191.811,57.5222 191.5,58.5C 186.426,60.9343 181.093,61.7676 175.5,61C 173.359,59.6924 171.359,58.1924 169.5,56.5C 168.702,56.9569 168.369,57.6236 168.5,58.5C 168.167,58.5 167.833,58.5 167.5,58.5C 164.729,59.6334 161.896,60.6334 159,61.5C 153.932,60.7228 151.765,57.7228 152.5,52.5C 152.703,49.8031 153.036,47.1364 153.5,44.5C 153.158,43.6618 152.492,43.3284 151.5,43.5C 149.877,44.4908 148.877,43.8241 148.5,41.5C 150.962,38.5361 153.629,35.7028 156.5,33C 160.067,30.4615 162.067,31.2948 162.5,35.5C 161.169,40.4941 159.836,45.4941 158.5,50.5C 158.539,52.5872 159.539,53.9206 161.5,54.5C 163.879,53.5581 166.046,52.2247 168,50.5C 168.017,44.1094 170.184,38.6094 174.5,34C 178.944,31.9323 183.277,32.099 187.5,34.5 Z M 182.5,40.5 C 182.5,41.1667 182.5,41.8333 182.5,42.5C 181.5,43.1667 180.5,43.8333 179.5,44.5C 179.738,42.5956 180.738,41.2623 182.5,40.5 Z"/></g>
<g><path style="opacity:1" fill="#2a7880" d="M 83.5,53.5 C 83.5123,55.4121 83.179,57.4121 82.5,59.5C 79.2109,60.5475 75.8776,61.0475 72.5,61C 71.0443,59.2552 69.711,57.4219 68.5,55.5C 66.3102,57.524 63.9768,59.3573 61.5,61C 59.1152,61.5564 56.7819,61.3897 54.5,60.5C 53.7421,50.9872 55.0755,41.8206 58.5,33C 60.1341,32.5065 61.8008,32.3398 63.5,32.5C 62.664,38.6827 61.664,44.8493 60.5,51C 62.7627,56.7411 65.2627,56.5744 68,50.5C 69.4898,44.5513 70.6565,38.5513 71.5,32.5C 73.5,32.5 75.5,32.5 77.5,32.5C 76.3408,39.7971 75.8408,47.1304 76,54.5C 76.5613,55.0219 77.228,55.3552 78,55.5C 79.8003,54.6805 81.6336,54.0138 83.5,53.5 Z"/></g>
<g><path style="opacity:0.734" fill="#151111" d="M 187.5,32.5 C 192.566,36.0555 193.733,40.7222 191,46.5C 189.301,48.6961 187.467,50.6961 185.5,52.5C 184.508,52.3284 183.842,52.6618 183.5,53.5C 181.365,54.9664 179.365,54.7998 177.5,53C 179.32,52.7996 180.653,51.9663 181.5,50.5C 183.749,49.9202 185.415,48.5869 186.5,46.5C 188.828,44.8339 189.828,42.5005 189.5,39.5C 189.333,38.1667 189.167,36.8333 189,35.5C 188.617,34.944 188.117,34.6107 187.5,34.5C 187.5,33.8333 187.5,33.1667 187.5,32.5 Z"/></g>
<g><path style="opacity:1" fill="#337b83" d="M 215.5,44.5 C 216.204,46.3442 217.537,46.8442 219.5,46C 221.502,41.0038 224.502,36.6705 228.5,33C 232.221,32.3219 235.888,32.4886 239.5,33.5C 240.379,35.228 241.046,37.0614 241.5,39C 241.057,40.825 240.723,42.6583 240.5,44.5C 237.738,47.5865 234.405,49.9198 230.5,51.5C 229.269,52.6507 229.269,53.8173 230.5,55C 237.191,55.6598 242.857,53.4932 247.5,48.5C 249.611,49.6046 250.945,51.2712 251.5,53.5C 251.027,54.9063 250.027,55.573 248.5,55.5C 246.147,56.3403 244.147,57.6736 242.5,59.5C 239.22,60.3694 235.887,61.0361 232.5,61.5C 229.174,61.3298 226.174,60.3298 223.5,58.5C 223.123,56.742 222.456,55.0754 221.5,53.5C 217.637,52.9039 213.97,51.9039 210.5,50.5C 210.167,50.5 209.833,50.5 209.5,50.5C 208.737,48.6316 207.737,46.9649 206.5,45.5C 206.5,45.1667 206.5,44.8333 206.5,44.5C 205.454,42.1183 205.454,39.7849 206.5,37.5C 207.587,33.4273 210.254,31.7606 214.5,32.5C 214.183,36.7016 214.517,40.7016 215.5,44.5 Z M 234.5,42.5 C 233.833,42.8333 233.167,43.1667 232.5,43.5C 232.711,41.5759 233.377,41.2426 234.5,42.5 Z"/></g>
<g><path style="opacity:1" fill="#90a9ac" d="M 45.5,11.5 C 48.5375,14.0601 50.3708,17.3935 51,21.5C 52.607,35.4217 49.107,47.7551 40.5,58.5C 42.3068,54.8864 44.1401,51.2198 46,47.5C 50.7714,35.3038 50.6047,23.3038 45.5,11.5 Z"/></g>
<g><path style="opacity:1" fill="#8fa7aa" d="M 103.5,4.5 C 108.403,10.2797 108.736,16.2797 104.5,22.5C 105.058,19.6557 105.725,16.8224 106.5,14C 106.206,8.02852 103.206,5.36185 97.5,6C 92.4611,12.2753 89.4611,19.442 88.5,27.5C 85.4816,27.3354 82.4816,27.502 79.5,28C 78.6634,29.0113 78.33,30.1779 78.5,31.5C 81.1873,31.3359 83.854,31.5026 86.5,32C 87.0219,32.5613 87.3552,33.228 87.5,34C 86.8956,39.8263 86.2289,45.6596 85.5,51.5C 84.4777,51.8555 83.811,52.5222 83.5,53.5C 81.6336,54.0138 79.8003,54.6805 78,55.5C 77.228,55.3552 76.5613,55.0219 76,54.5C 75.8408,47.1304 76.3408,39.7971 77.5,32.5C 75.5,32.5 73.5,32.5 71.5,32.5C 70.6565,38.5513 69.4898,44.5513 68,50.5C 65.2627,56.5744 62.7627,56.7411 60.5,51C 61.664,44.8493 62.664,38.6827 63.5,32.5C 61.8008,32.3398 60.1341,32.5065 58.5,33C 55.0755,41.8206 53.7421,50.9872 54.5,60.5C 54.1667,60.5 53.8333,60.5 53.5,60.5C 52.1376,52.5506 52.6376,44.5506 55,36.5C 56.3705,30.902 59.5372,29.2353 64.5,31.5C 64.0518,38.8549 63.3852,46.1883 62.5,53.5C 63.791,53.7373 64.791,53.404 65.5,52.5C 67.312,45.945 68.812,39.2784 70,32.5C 72.166,30.8787 74.666,30.0454 77.5,30C 76.5419,28.8525 76.8753,27.8525 78.5,27C 81.1667,26.6667 83.8333,26.3333 86.5,26C 88.2103,19.541 90.7103,13.3743 94,7.5C 96.4896,3.98993 99.6562,2.98993 103.5,4.5 Z M 85.5,35.5 C 85.6658,40.1785 85.4992,44.8452 85,49.5C 83.0281,51.2318 80.8614,52.5652 78.5,53.5C 79.7213,47.2234 80.8879,40.8901 82,34.5C 83.0113,35.3366 84.1779,35.67 85.5,35.5 Z"/></g>
<g><path style="opacity:0.697" fill="#0e0b0a" d="M 85.5,35.5 C 84.1779,35.67 83.0113,35.3366 82,34.5C 80.8879,40.8901 79.7213,47.2234 78.5,53.5C 77.2749,52.8478 76.6083,51.6811 76.5,50C 77.5845,44.1664 78.5845,38.333 79.5,32.5C 81.5,32.5 83.5,32.5 85.5,32.5C 85.5,33.5 85.5,34.5 85.5,35.5 Z"/></g>
<g><path style="opacity:0.672" fill="#0d0a09" d="M 64.5,31.5 C 66.8896,31.6848 67.8896,33.0182 67.5,35.5C 66.7134,40.8879 65.7134,46.2212 64.5,51.5C 64.6236,52.1067 64.9569,52.44 65.5,52.5C 64.791,53.404 63.791,53.7373 62.5,53.5C 63.3852,46.1883 64.0518,38.8549 64.5,31.5 Z"/></g>
<g><path style="opacity:0.763" fill="#080606" d="M 110.5,36.5 C 106.563,36.2065 102.73,36.5399 99,37.5C 97.7524,41.3887 96.9191,45.3887 96.5,49.5C 96.1104,51.9818 97.1104,53.3152 99.5,53.5C 97.8466,54.7994 96.3466,54.4661 95,52.5C 94.5008,47.8452 94.3342,43.1785 94.5,38.5C 95.3382,38.1583 95.6716,37.4916 95.5,36.5C 100.552,34.4456 105.886,33.9456 111.5,35C 110.944,35.3826 110.611,35.8826 110.5,36.5 Z"/></g>
<g><path style="opacity:0.73" fill="#12100f" d="M 122.5,34.5 C 127.294,33.9031 131.627,34.5698 135.5,36.5C 131.774,36.1774 128.107,36.5108 124.5,37.5C 124.192,38.3081 123.692,38.9747 123,39.5C 122.501,44.1548 122.334,48.8215 122.5,53.5C 121.833,53.5 121.167,53.5 120.5,53.5C 119.608,48.5624 119.274,43.5624 119.5,38.5C 121.262,37.7377 122.262,36.4044 122.5,34.5 Z"/></g>
<g><path style="opacity:0.724" fill="#0b0706" d="M 239.5,33.5 C 239.5,33.1667 239.5,32.8333 239.5,32.5C 242.913,33.9464 244.913,36.6131 245.5,40.5C 244.217,46.079 241.217,50.4123 236.5,53.5C 234.365,54.9664 232.365,54.7998 230.5,53C 235.273,51.7176 238.606,48.8843 240.5,44.5C 241.117,44.3893 241.617,44.056 242,43.5C 242.667,40.8333 242.667,38.1667 242,35.5C 241.292,34.6195 240.458,33.9528 239.5,33.5 Z"/></g>
<g><path style="opacity:1" fill="#96afb2" d="M 203.5,30.5 C 203.337,32.8568 203.503,35.1902 204,37.5C 205.095,36.3066 205.928,34.9733 206.5,33.5C 209.099,30.5707 212.099,29.904 215.5,31.5C 216.304,35.7555 216.304,40.0888 215.5,44.5C 214.517,40.7016 214.183,36.7016 214.5,32.5C 210.254,31.7606 207.587,33.4273 206.5,37.5C 205.288,38.2299 204.288,39.2299 203.5,40.5C 202.516,37.5719 202.183,34.5719 202.5,31.5C 201.448,31.3505 200.448,31.5172 199.5,32C 197.099,37.2112 195.599,42.7112 195,48.5C 190.108,53.3691 184.275,55.5357 177.5,55C 176.324,51.6908 177.657,50.1908 181.5,50.5C 180.653,51.9663 179.32,52.7996 177.5,53C 179.365,54.7998 181.365,54.9664 183.5,53.5C 184.492,53.6716 185.158,53.3382 185.5,52.5C 188.342,51.8277 190.842,50.4944 193,48.5C 194.12,43.1178 195.453,37.7844 197,32.5C 198.789,30.771 200.956,30.1043 203.5,30.5 Z"/></g>
<g><path style="opacity:0.598" fill="#1f1b1a" d="M 203.5,30.5 C 205.19,30.8564 206.19,31.8564 206.5,33.5C 205.928,34.9733 205.095,36.3066 204,37.5C 203.503,35.1902 203.337,32.8568 203.5,30.5 Z"/></g>
<g><path style="opacity:1" fill="#a2b2b3" d="M 182.5,38.5 C 180.053,38.615 178.053,39.615 176.5,41.5C 177.336,37.8094 179.336,36.8094 182.5,38.5 Z"/></g>
<g><path style="opacity:1" fill="#8caaad" d="M 111.5,48.5 C 107.889,50.6437 104.222,52.8104 100.5,55C 96.8339,56.271 94.3339,55.1044 93,51.5C 92.3333,47.1667 92.3333,42.8333 93,38.5C 93.69,37.2617 94.19,37.2617 94.5,38.5C 94.3342,43.1785 94.5008,47.8452 95,52.5C 96.3466,54.4661 97.8466,54.7994 99.5,53.5C 103.104,52.0278 106.438,50.0278 109.5,47.5C 110.489,43.8927 110.823,40.226 110.5,36.5C 110.611,35.8826 110.944,35.3826 111.5,35C 105.886,33.9456 100.552,34.4456 95.5,36.5C 95.5106,34.9826 96.1772,33.8159 97.5,33C 102.489,32.5007 107.489,32.3341 112.5,32.5C 112.782,37.9265 112.449,43.2599 111.5,48.5 Z"/></g>
<g><path style="opacity:0.815" fill="#161211" d="M 182.5,38.5 C 182.5,39.1667 182.5,39.8333 182.5,40.5C 180.738,41.2623 179.738,42.5956 179.5,44.5C 178.791,45.404 177.791,45.7373 176.5,45.5C 176.5,44.1667 176.5,42.8333 176.5,41.5C 178.053,39.615 180.053,38.615 182.5,38.5 Z"/></g>
<g><path style="opacity:1" fill="#9ebfc2" d="M 187.5,34.5 C 188.117,34.6107 188.617,34.944 189,35.5C 189.167,36.8333 189.333,38.1667 189.5,39.5C 189.828,42.5005 188.828,44.8339 186.5,46.5C 188.588,42.6414 188.921,38.6414 187.5,34.5 Z"/></g>
<g><path style="opacity:0.798" fill="#14100f" d="M 235.5,42.5 C 235.167,42.5 234.833,42.5 234.5,42.5C 233.377,41.2426 232.711,41.5759 232.5,43.5C 231.833,43.5 231.5,43.8333 231.5,44.5C 230.528,45.7514 229.861,45.418 229.5,43.5C 229.846,42.1508 230.179,40.8175 230.5,39.5C 233.838,37.6696 235.504,38.6696 235.5,42.5 Z"/></g>
<g><path style="opacity:1" fill="#96adb0" d="M 239.5,33.5 C 240.458,33.9528 241.292,34.6195 242,35.5C 242.667,38.1667 242.667,40.8333 242,43.5C 241.617,44.056 241.117,44.3893 240.5,44.5C 240.723,42.6583 241.057,40.825 241.5,39C 241.046,37.0614 240.379,35.228 239.5,33.5 Z"/></g>
<g><path style="opacity:1" fill="#95b0b3" d="M 158.5,2.5 C 159.117,2.61071 159.617,2.94404 160,3.5C 160.667,6.83333 160.667,10.1667 160,13.5C 157.296,20.9558 154.629,28.2892 152,35.5C 153.73,33.5981 155.563,31.9314 157.5,30.5C 159.284,29.2801 160.95,29.2801 162.5,30.5C 163.086,32.2429 163.419,34.0762 163.5,36C 162.405,40.4582 161.405,44.9582 160.5,49.5C 160.833,50.8333 161.167,52.1667 161.5,53.5C 162.107,53.3764 162.44,53.0431 162.5,52.5C 163.721,51.9717 164.887,51.305 166,50.5C 166.341,43.1238 169.175,36.9571 174.5,32C 179.051,29.8654 183.385,30.0321 187.5,32.5C 187.5,33.1667 187.5,33.8333 187.5,34.5C 183.277,32.099 178.944,31.9323 174.5,34C 170.184,38.6094 168.017,44.1094 168,50.5C 166.046,52.2247 163.879,53.5581 161.5,54.5C 159.539,53.9206 158.539,52.5872 158.5,50.5C 159.836,45.4941 161.169,40.4941 162.5,35.5C 162.067,31.2948 160.067,30.4615 156.5,33C 153.629,35.7028 150.962,38.5361 148.5,41.5C 147.637,42.463 146.97,42.463 146.5,41.5C 151.14,33.2167 154.974,24.55 158,15.5C 159.505,11.1715 159.672,6.83812 158.5,2.5 Z"/></g>
<g><path style="opacity:0.697" fill="#131010" d="M 162.5,30.5 C 165.525,31.0332 166.858,32.8665 166.5,36C 165.061,41.4809 163.728,46.9809 162.5,52.5C 162.44,53.0431 162.107,53.3764 161.5,53.5C 161.167,52.1667 160.833,50.8333 160.5,49.5C 161.405,44.9582 162.405,40.4582 163.5,36C 163.419,34.0762 163.086,32.2429 162.5,30.5 Z"/></g>
<g><path style="opacity:0.961" fill="#8e9fa1" d="M 27.5,12.5 C 38.4902,10.8188 43.4902,15.8188 42.5,27.5C 42.6897,39.9435 38.3564,50.4435 29.5,59C 19.9347,63.0867 13.4347,60.2534 10,50.5C 7.80124,40.0117 9.96791,30.6783 16.5,22.5C 15.6205,25.2622 14.4538,27.9289 13,30.5C 10.2102,37.393 9.87688,44.393 12,51.5C 12.7146,54.6411 14.5479,56.6411 17.5,57.5C 24.1812,60.4392 29.6812,58.7725 34,52.5C 40.2552,41.76 42.0885,30.4267 39.5,18.5C 39.1412,16.629 38.1412,15.129 36.5,14C 33.6074,12.8512 30.6074,12.3512 27.5,12.5 Z"/></g>
<g><path style="opacity:0.92" fill="#96a2a3" d="M 122.5,34.5 C 126.97,33.5139 131.637,33.1805 136.5,33.5C 136.666,38.5111 136.499,43.5111 136,48.5C 131.887,52.4768 127.054,54.6435 121.5,55C 120.944,54.6174 120.611,54.1174 120.5,53.5C 121.167,53.5 121.833,53.5 122.5,53.5C 127.62,52.9399 131.954,50.7732 135.5,47C 135.132,43.6222 135.132,40.1222 135.5,36.5C 131.627,34.5698 127.294,33.9031 122.5,34.5 Z"/></g>
<g><path style="opacity:1" fill="#96adaf" d="M 239.5,32.5 C 239.5,32.8333 239.5,33.1667 239.5,33.5C 235.888,32.4886 232.221,32.3219 228.5,33C 224.502,36.6705 221.502,41.0038 219.5,46C 217.537,46.8442 216.204,46.3442 215.5,44.5C 216.167,44.5 216.833,44.5 217.5,44.5C 218.496,44.5858 219.329,44.2524 220,43.5C 221.793,36.2045 226.293,31.8712 233.5,30.5C 235.883,30.361 237.883,31.0277 239.5,32.5 Z"/></g>
<g><path style="opacity:1" fill="#98b1b4" d="M 176.5,41.5 C 176.5,42.8333 176.5,44.1667 176.5,45.5C 177.791,45.7373 178.791,45.404 179.5,44.5C 180.5,43.8333 181.5,43.1667 182.5,42.5C 181.473,45.858 179.14,47.5246 175.5,47.5C 175.205,45.2646 175.539,43.2646 176.5,41.5 Z"/></g>
<g><path style="opacity:1" fill="#999c9c" d="M 230.5,39.5 C 230.179,40.8175 229.846,42.1508 229.5,43.5C 229.861,45.418 230.528,45.7514 231.5,44.5C 232.167,44.5 232.5,44.1667 232.5,43.5C 233.167,43.1667 233.833,42.8333 234.5,42.5C 234.833,42.5 235.167,42.5 235.5,42.5C 234.145,45.5177 231.812,46.851 228.5,46.5C 228.338,44.4727 228.505,42.4727 229,40.5C 229.383,39.944 229.883,39.6107 230.5,39.5 Z"/></g>
<g><path style="opacity:0.706" fill="#0d0a09" d="M 206.5,45.5 C 207.737,46.9649 208.737,48.6316 209.5,50.5C 206.936,55.3265 204.269,60.1599 201.5,65C 198.006,65.9204 195.673,64.7537 194.5,61.5C 196.67,62.768 198.837,62.768 201,61.5C 203.141,56.2436 204.974,50.9103 206.5,45.5 Z"/></g>
<g><path style="opacity:1" fill="#99bec2" d="M 119.5,38.5 C 119.274,43.5624 119.608,48.5624 120.5,53.5C 119.883,53.3893 119.383,53.056 119,52.5C 118.185,47.6478 118.352,42.9811 119.5,38.5 Z"/></g>
<g><path style="opacity:0.749" fill="#120f0e" d="M 151.5,43.5 C 152.492,43.3284 153.158,43.6618 153.5,44.5C 151.707,46.4261 150.707,48.7594 150.5,51.5C 147.986,56.0193 145.319,60.5193 142.5,65C 139.706,65.9724 137.706,65.1391 136.5,62.5C 141.294,63.3731 143.627,61.3731 143.5,56.5C 146.414,52.342 149.081,48.0086 151.5,43.5 Z"/></g>
<g><path style="opacity:0.373" fill="#030000" d="M 248.5,46.5 C 250.5,46.5 251.5,47.5 251.5,49.5C 250.167,48.8333 249.167,47.8333 248.5,46.5 Z"/></g>
<g><path style="opacity:0.673" fill="#100d0d" d="M 252.5,50.5 C 253.391,51.1098 254.391,51.4431 255.5,51.5C 255.5,52.5 255.5,53.5 255.5,54.5C 252.044,56.7833 248.71,59.2833 245.5,62C 238.939,65.992 232.272,66.3253 225.5,63C 223.536,61.549 222.203,59.7157 221.5,57.5C 222.167,57.8333 222.833,58.1667 223.5,58.5C 225.714,61.8516 228.881,63.1849 233,62.5C 236.713,62.8946 239.88,61.8946 242.5,59.5C 245.198,59.1551 247.198,57.8218 248.5,55.5C 250.027,55.573 251.027,54.9063 251.5,53.5C 252.404,52.791 252.737,51.791 252.5,50.5 Z"/></g>
<g><path style="opacity:1" fill="#8ca2a4" d="M 210.5,50.5 C 213.97,51.9039 217.637,52.9039 221.5,53.5C 222.456,55.0754 223.123,56.742 223.5,58.5C 222.833,58.1667 222.167,57.8333 221.5,57.5C 220.662,57.1583 220.328,56.4916 220.5,55.5C 218.342,53.78 215.675,52.9467 212.5,53C 211.619,52.2917 210.953,51.4584 210.5,50.5 Z"/></g>
<g><path style="opacity:0.59" fill="#0f0a0a" d="M 209.5,50.5 C 209.833,50.5 210.167,50.5 210.5,50.5C 210.953,51.4584 211.619,52.2917 212.5,53C 215.675,52.9467 218.342,53.78 220.5,55.5C 215.225,57.3623 211.558,55.6957 209.5,50.5 Z"/></g>
<g><path style="opacity:0.675" fill="#9fb1b3" d="M 240.5,44.5 C 238.606,48.8843 235.273,51.7176 230.5,53C 232.365,54.7998 234.365,54.9664 236.5,53.5C 240.828,51.6713 244.828,49.338 248.5,46.5C 249.167,47.8333 250.167,48.8333 251.5,49.5C 252.167,49.5 252.5,49.8333 252.5,50.5C 252.737,51.791 252.404,52.791 251.5,53.5C 250.945,51.2712 249.611,49.6046 247.5,48.5C 242.857,53.4932 237.191,55.6598 230.5,55C 229.269,53.8173 229.269,52.6507 230.5,51.5C 234.405,49.9198 237.738,47.5865 240.5,44.5 Z"/></g>
<g><path style="opacity:1" fill="#8a9d9f" d="M 6.5,60.5 C 5.83333,60.1667 5.16667,59.8333 4.5,59.5C 3.66175,59.1583 3.32842,58.4916 3.5,57.5C 3.35055,56.448 3.51722,55.448 4,54.5C 5.12197,56.4068 5.95531,58.4068 6.5,60.5 Z"/></g>
<g><path style="opacity:1" fill="#a3babd" d="M 111.5,48.5 C 112.89,53.1054 115.223,57.2721 118.5,61C 123.084,61.5291 127.417,60.6957 131.5,58.5C 127.566,62.0886 122.899,63.2552 117.5,62C 116.627,60.955 115.627,60.1217 114.5,59.5C 114.229,55.8695 112.562,54.8695 109.5,56.5C 111.226,54.1799 111.893,51.5133 111.5,48.5 Z"/></g>
<g><path style="opacity:0.724" fill="#120e0e" d="M 114.5,59.5 C 113.883,59.3893 113.383,59.056 113,58.5C 108.124,61.5219 102.958,63.8552 97.5,65.5C 93.3634,65.3534 90.6968,63.3534 89.5,59.5C 89.8333,59.5 90.1667,59.5 90.5,59.5C 90.9528,60.4584 91.6195,61.2917 92.5,62C 99.1316,63.0113 104.798,61.1779 109.5,56.5C 112.562,54.8695 114.229,55.8695 114.5,59.5 Z"/></g>
<g><path style="opacity:0.716" fill="#100d0d" d="M 69.5,60.5 C 65.587,64.9702 60.9203,66.1369 55.5,64C 54.1772,63.1841 53.5106,62.0174 53.5,60.5C 53.8333,60.5 54.1667,60.5 54.5,60.5C 59.6563,63.6319 64.1563,62.6319 68,57.5C 69.0386,58.2438 69.5386,59.2438 69.5,60.5 Z"/></g>
<g><path style="opacity:0.689" fill="#0b0807" d="M 89.5,59.5 C 85.4392,62.3589 80.9392,64.3589 76,65.5C 72.5521,65.3248 70.3854,63.6581 69.5,60.5C 74.0608,63.2776 78.3941,62.9443 82.5,59.5C 84.258,59.1231 85.9246,58.4565 87.5,57.5C 88.5223,57.8555 89.189,58.5222 89.5,59.5 Z"/></g>
<g><path style="opacity:1" fill="#a1b6b8" d="M 82.5,59.5 C 78.3941,62.9443 74.0608,63.2776 69.5,60.5C 69.5386,59.2438 69.0386,58.2438 68,57.5C 64.1563,62.6319 59.6563,63.6319 54.5,60.5C 56.7819,61.3897 59.1152,61.5564 61.5,61C 63.9768,59.3573 66.3102,57.524 68.5,55.5C 69.711,57.4219 71.0443,59.2552 72.5,61C 75.8776,61.0475 79.2109,60.5475 82.5,59.5 Z"/></g>
<g><path style="opacity:0.649" fill="#0e0b0b" d="M 135.5,60.5 C 131.504,62.9959 127.171,64.6626 122.5,65.5C 118.363,65.3534 115.697,63.3534 114.5,59.5C 115.627,60.1217 116.627,60.955 117.5,62C 122.899,63.2552 127.566,62.0886 131.5,58.5C 132.583,58.4606 133.583,58.1272 134.5,57.5C 135.386,58.325 135.719,59.325 135.5,60.5 Z"/></g>
<g><path style="opacity:1" fill="#95a9ab" d="M 143.5,56.5 C 143.627,61.3731 141.294,63.3731 136.5,62.5C 135.662,62.1583 135.328,61.4916 135.5,60.5C 135.719,59.325 135.386,58.325 134.5,57.5C 133.583,58.1272 132.583,58.4606 131.5,58.5C 132.406,57.0351 133.739,56.0351 135.5,55.5C 137.479,63.1525 140.146,63.4858 143.5,56.5 Z"/></g>
<g><path style="opacity:0.69" fill="#0f0c0c" d="M 167.5,58.5 C 167.833,58.5 168.167,58.5 168.5,58.5C 174.609,62.7715 181.275,63.6048 188.5,61C 189.942,60.6232 190.942,59.7899 191.5,58.5C 193.144,58.8102 194.144,59.8102 194.5,61.5C 190.433,63.6329 186.1,64.9662 181.5,65.5C 176.922,65.4765 173.089,63.8098 170,60.5C 166.176,64.1685 161.676,65.6685 156.5,65C 154.937,64.2411 153.937,63.0744 153.5,61.5C 158.867,63.418 163.533,62.418 167.5,58.5 Z"/></g>
<g><path style="opacity:1" fill="#b2bebf" d="M 248.5,55.5 C 247.198,57.8218 245.198,59.1551 242.5,59.5C 244.147,57.6736 246.147,56.3403 248.5,55.5 Z"/></g>
<g><path style="opacity:1" fill="#9bbabd" d="M 206.5,44.5 C 206.5,44.8333 206.5,45.1667 206.5,45.5C 204.974,50.9103 203.141,56.2436 201,61.5C 198.837,62.768 196.67,62.768 194.5,61.5C 194.144,59.8102 193.144,58.8102 191.5,58.5C 191.811,57.5222 192.478,56.8555 193.5,56.5C 194.624,57.914 195.624,59.414 196.5,61C 197.5,61.6667 198.5,61.6667 199.5,61C 201.757,55.3755 204.09,49.8755 206.5,44.5 Z"/></g>
<g><path style="opacity:0.043" fill="#161110" d="M 4.5,59.5 C 5.16667,59.8333 5.83333,60.1667 6.5,60.5C 6.5,61.1667 6.5,61.8333 6.5,62.5C 5.09368,62.0269 4.42702,61.0269 4.5,59.5 Z"/></g>
<g><path style="opacity:1" fill="#96b0b2" d="M 191.5,58.5 C 190.942,59.7899 189.942,60.6232 188.5,61C 181.275,63.6048 174.609,62.7715 168.5,58.5C 168.369,57.6236 168.702,56.9569 169.5,56.5C 171.359,58.1924 173.359,59.6924 175.5,61C 181.093,61.7676 186.426,60.9343 191.5,58.5 Z"/></g>
<g><path style="opacity:1" fill="#98b5b8" d="M 109.5,56.5 C 104.798,61.1779 99.1316,63.0113 92.5,62C 91.6195,61.2917 90.9528,60.4584 90.5,59.5C 92.3069,60.6148 94.3069,61.2814 96.5,61.5C 100.945,60.1103 105.278,58.4437 109.5,56.5 Z"/></g>
<g><path style="opacity:1" fill="#86a4a8" d="M 153.5,44.5 C 153.036,47.1364 152.703,49.8031 152.5,52.5C 151.765,57.7228 153.932,60.7228 159,61.5C 161.896,60.6334 164.729,59.6334 167.5,58.5C 163.533,62.418 158.867,63.418 153.5,61.5C 151.025,58.7491 150.025,55.4158 150.5,51.5C 150.707,48.7594 151.707,46.4261 153.5,44.5 Z"/></g>
<g><path style="opacity:1" fill="#93b3b6" d="M 223.5,58.5 C 226.174,60.3298 229.174,61.3298 232.5,61.5C 235.887,61.0361 239.22,60.3694 242.5,59.5C 239.88,61.8946 236.713,62.8946 233,62.5C 228.881,63.1849 225.714,61.8516 223.5,58.5 Z"/></g>
<g><path style="opacity:1" fill="#95b3b6" d="M 34.5,64.5 C 33.2511,66.1361 31.5844,67.3028 29.5,68C 21.3199,69.8195 13.9865,68.3195 7.5,63.5C 7.36899,62.7611 7.53566,62.0944 8,61.5C 9.55779,63.3589 11.3911,64.8589 13.5,66C 20.7104,68.2382 27.7104,67.7382 34.5,64.5 Z"/></g>
</svg>
