<?xml version="1.0" encoding="UTF-8"?>
<svg id="Laag_1" data-name="Laag 1" xmlns="http://www.w3.org/2000/svg" xmlns:xlink="http://www.w3.org/1999/xlink" viewBox="0 0 187.33 52.24">
  <defs>
    <style>
      .cls-1 {
        fill: none;
      }

      .cls-2 {
        filter: url(#drop-shadow-8);
      }

      .cls-2, .cls-3 {
        fill: #2f7b83;
        stroke: #fff;
        stroke-width: .5px;
      }

      .cls-3 {
        filter: url(#drop-shadow-7);
        stroke-miterlimit: 10;
      }
    </style>
    <filter id="drop-shadow-7" filterUnits="userSpaceOnUse">
      <feOffset dx="1.5" dy="1.2"/>
      <feGaussianBlur result="blur" stdDeviation=".3"/>
      <feFlood flood-color="#000" flood-opacity="1"/>
      <feComposite in2="blur" operator="in"/>
      <feComposite in="SourceGraphic"/>
    </filter>
    <filter id="drop-shadow-8" filterUnits="userSpaceOnUse">
      <feOffset dx="1.5" dy="1.2"/>
      <feGaussianBlur result="blur-2" stdDeviation=".3"/>
      <feFlood flood-color="#000" flood-opacity="1"/>
      <feComposite in2="blur-2" operator="in"/>
      <feComposite in="SourceGraphic"/>
    </filter>
  </defs>
  <path class="cls-1" d="m170.56,32.69c.57-.45,1.05-.95,1.44-1.48s.59-1.05.59-1.55c0-.7-.13-1.28-.39-1.73s-.57-.68-.95-.68c-.67,0-1.25.12-1.72.38s-.88.57-1.2.97-.58.85-.77,1.36-.34,1.02-.45,1.54-.17,1.02-.2,1.5-.05.9-.05,1.24c.56,0,1.18-.14,1.84-.43s1.28-.66,1.85-1.11Z"/>
  <path class="cls-3" d="m32.3,7.73c-1.27-1.52-2.84-2.7-4.69-3.54s-3.95-1.27-6.29-1.27c-1.75,0-3.39.23-4.91.69s-2.95,1.1-4.27,1.92-2.53,1.8-3.62,2.93-2.08,2.37-2.96,3.71-1.66,2.77-2.32,4.28-1.22,3.05-1.66,4.62-.78,3.14-1,4.72-.33,3.12-.33,4.62c0,2.83.35,5.43,1.05,7.79s1.71,4.41,3.02,6.12,2.9,3.04,4.77,4,3.96,1.43,6.29,1.43,4.28-.44,6.18-1.32,3.62-2.07,5.17-3.57,2.91-3.24,4.1-5.23,2.18-4.07,2.98-6.27,1.4-4.43,1.82-6.7.62-4.46.62-6.55c0-2.53-.34-4.85-1.02-6.95s-1.66-3.91-2.93-5.43Zm-2.25,14.89c-.13,1.26-.34,2.57-.62,3.93s-.64,2.73-1.07,4.12-.93,2.73-1.51,4.03-1.24,2.51-1.98,3.64-1.56,2.12-2.46,2.96-1.89,1.51-2.96,1.99-2.24.73-3.49.73c-1.52,0-2.87-.32-4.07-.95s-2.21-1.5-3.05-2.61-1.48-2.43-1.92-3.95-.67-3.17-.67-4.93c0-1.62.2-3.33.59-5.11s.94-3.53,1.64-5.25,1.55-3.36,2.53-4.91,2.07-2.92,3.26-4.1,2.45-2.12,3.8-2.81,2.73-1.04,4.17-1.04c1.34,0,2.52.28,3.53.84s1.84,1.33,2.51,2.31,1.16,2.12,1.49,3.45.49,2.73.49,4.23c0,1.03-.07,2.18-.2,3.43Z"/>
  <path class="cls-2" d="m181.38,34.59c-.61.59-1.35,1.22-2.23,1.89s-1.8,1.28-2.79,1.84-2,1.03-3.04,1.41-2.03.56-2.96.56c-.3,0-.57-.03-.83-.09s-.5-.17-.74-.33-.46-.38-.69-.66-.46-.63-.69-1.05c1.36-.38,2.62-.9,3.79-1.57s2.17-1.44,3.01-2.3,1.5-1.77,1.98-2.74.71-1.94.71-2.91c0-.89-.16-1.7-.47-2.41s-.75-1.33-1.3-1.84-1.21-.9-1.96-1.18-1.56-.42-2.44-.42c-1.08,0-2.06.19-2.94.57s-1.68.9-2.39,1.55-1.33,1.4-1.86,2.25-.97,1.75-1.32,2.68c-.33.88-.57,1.78-.75,2.7-.18.09-.36.18-.55.26-.75.31-1.48.47-2.18.47-.25,0-.49-.05-.71-.14s-.43-.25-.61-.48-.32-.53-.43-.9-.16-.84-.16-1.41c0-.33.04-.74.12-1.23s.16-1,.26-1.52.18-1.02.26-1.5.12-.85.12-1.11c0-.34-.06-.65-.19-.93s-.29-.5-.5-.69-.46-.33-.74-.43-.57-.15-.87-.15c-.86,0-1.62.23-2.27.69s-1.24,1.03-1.76,1.7-.97,1.39-1.36,2.17-.74,1.47-1.05,2.1h-.26c-.03-.8-.05-1.61-.05-2.43v-2.1c0-.48-.01-.87-.04-1.15s-.09-.5-.2-.64-.28-.24-.5-.28-.54-.06-.95-.06c-.36,0-.66.02-.9.06s-.45.12-.61.23-.31.28-.43.48-.25.48-.38.82c-.2.52-.41,1.17-.61,1.97s-.41,1.67-.61,2.62-.39,1.96-.57,3.01c-.17,1.02-.33,2.03-.46,3.02-.53.48-1.11.98-1.81,1.51-.88.66-1.8,1.28-2.79,1.84s-2,1.03-3.04,1.41-2.03.56-2.96.56c-.3,0-.57-.03-.83-.09s-.5-.17-.74-.33-.46-.38-.69-.66-.46-.63-.69-1.05c1.36-.38,2.62-.9,3.79-1.57s2.17-1.44,3.01-2.3,1.5-1.77,1.98-2.74.71-1.94.71-2.91c0-.89-.16-1.7-.47-2.41s-.75-1.33-1.3-1.84-1.21-.9-1.96-1.18-1.56-.42-2.44-.42c-1.08,0-2.06.19-2.94.57s-1.68.9-2.39,1.55-1.33,1.4-1.86,2.25-.97,1.75-1.32,2.68-.61,1.89-.79,2.87-.26,1.9-.26,2.78c0,.31.01.61.03.91-.13.12-.25.26-.38.38-.36.34-.74.68-1.15,1s-.82.61-1.24.86-.84.45-1.27.61-.82.23-1.2.23c-.3,0-.54-.19-.73-.56s-.28-.88-.28-1.5c0-1.14.14-2.23.43-3.28s.61-2.07.96-3.08.68-2.02.97-3.02.45-2.04.45-3.11c0-.53-.07-.96-.21-1.3s-.32-.6-.53-.79-.43-.32-.67-.39-.45-.11-.63-.11c-.75,0-1.55.28-2.4.83s-1.71,1.25-2.57,2.09-1.69,1.74-2.48,2.71-1.52,1.88-2.16,2.72l-.47-.33c.53-.98,1.14-2.12,1.84-3.42s1.4-2.68,2.12-4.14,1.42-2.97,2.11-4.52,1.3-3.09,1.84-4.61.97-2.98,1.3-4.38.49-2.69.49-3.84c0-.78-.06-1.49-.19-2.12s-.35-1.18-.67-1.63-.75-.8-1.29-1.05-1.23-.38-2.07-.38c-1.62,0-3.06.45-4.31,1.36s-2.34,2.13-3.27,3.67-1.72,3.32-2.37,5.34-1.19,4.15-1.62,6.38c-.34,1.75-.6,3.53-.82,5.32,0-.41-.07-.76-.2-1.04-.14-.3-.37-.45-.68-.47-.27-.02-.6-.03-1.01-.05s-.84-.03-1.31-.05-.95-.04-1.45-.06-.96-.04-1.39-.06-.81-.03-1.14-.04-.56-.02-.7-.04c.56-.89,1.1-1.79,1.61-2.7s.95-1.8,1.32-2.68.67-1.75.89-2.6.33-1.66.33-2.43c0-.91-.11-1.78-.32-2.61s-.51-1.57-.9-2.19-.86-1.12-1.42-1.5-1.17-.56-1.84-.56c-1.05,0-2.05.46-3,1.39s-1.83,2.16-2.64,3.7-1.53,3.3-2.18,5.27-1.18,4.02-1.61,6.13c-.16.03-.44.04-.86.04s-.88-.02-1.41-.04-1.07-.02-1.64-.01-1.09.05-1.57.13-.87.2-1.17.36c-.18.1-.3.22-.37.37-.05,0-.11,0-.17,0-.43-.02-.81-.03-1.14-.04s-.56-.02-.7-.04c.56-.89,1.1-1.79,1.61-2.7s.95-1.8,1.32-2.68.67-1.75.89-2.6.33-1.66.33-2.43c0-.91-.11-1.78-.32-2.61s-.51-1.57-.9-2.19-.86-1.12-1.42-1.5-1.17-.56-1.84-.56c-1.05,0-2.05.46-3,1.39s-1.83,2.16-2.64,3.7-1.53,3.3-2.18,5.27-1.18,4.02-1.61,6.13c-.16.03-.44.04-.86.04s-.88-.02-1.41-.04-1.07-.02-1.64-.01-1.09.05-1.57.13-.87.2-1.17.36-.46.4-.46.71c0,.14,0,.31.02.5s.07.38.16.56.24.34.45.47.49.22.87.27c.84.09,1.49.17,1.93.23s.81.12,1.1.18.56.11.82.16.62.11,1.09.18c-.14,1.05-.25,2.1-.33,3.16s-.12,2.06-.12,3c0,2.41.15,4.57.46,6.49,0,.04.02.08.02.13-.25.21-.52.43-.8.65-.52.41-1.07.79-1.65,1.16s-1.14.7-1.7.98-1.08.52-1.57.69-.91.26-1.25.26c-.31,0-.55-.07-.71-.22s-.29-.36-.36-.63-.12-.59-.14-.96-.02-.77-.02-1.21c0-.23.05-.65.14-1.25s.21-1.3.36-2.1.31-1.66.48-2.58.33-1.82.48-2.68.27-1.66.36-2.39.14-1.3.14-1.72-.23-.8-.7-1.08-1.1-.42-1.9-.42c-.7,0-1.33.13-1.89.39s-.87.57-.95.95l-2.32,11.91c-.12.62-.31,1.18-.56,1.68s-.54.91-.86,1.24-.66.59-1.02.77-.71.27-1.05.27c-.23,0-.44-.06-.61-.19s-.31-.29-.42-.49-.19-.43-.25-.69-.08-.53-.08-.81c0-.02.04-.26.11-.73s.17-1.09.29-1.85.27-1.64.42-2.61.32-1.98.49-3.01.34-2.05.5-3.07.32-1.94.46-2.77c0-.27-.18-.49-.54-.67s-.95-.29-1.78-.32c-.5.02-.95.15-1.35.4s-.75.57-1.04.96-.55.83-.77,1.31-.4.96-.55,1.43-.27.9-.35,1.3-.14.71-.18.95c-.42,2.39-.78,4.52-1.07,6.38s-.43,3.39-.43,4.59c0,.98.1,1.81.3,2.47s.48,1.2.83,1.61.75.7,1.21.87.94.26,1.45.26c.62,0,1.27-.13,1.93-.39s1.32-.61,1.97-1.07,1.29-.99,1.91-1.61,1.22-1.29,1.78-2.03c.16.72.34,1.37.55,1.96s.47,1.09.77,1.51.67.75,1.09.98.93.35,1.52.35,1.23-.08,1.92-.25,1.38-.38,2.09-.66,1.4-.59,2.1-.95,1.35-.73,1.97-1.12,1.18-.78,1.69-1.17c.22-.17.43-.34.62-.5.09.24.18.48.28.7.61,1.35,1.37,2.39,2.27,3.11s1.95,1.08,3.14,1.08c.58,0,1.22-.11,1.93-.33s1.52-.55,2.44-.98,1.96-.98,3.13-1.64,2.51-1.42,4.01-2.3v-6c-.47.52-.99,1.02-1.57,1.51s-1.18.96-1.82,1.41-1.27.86-1.92,1.23-1.27.7-1.85.97-1.12.49-1.62.64-.9.23-1.23.23c-.53,0-1.01-.08-1.44-.25s-.79-.43-1.09-.8-.52-.84-.68-1.42-.23-1.29-.23-2.13c0-.33,0-.69.01-1.08s.02-.8.04-1.22.03-.85.05-1.28.03-.85.05-1.25c.05-.94.1-1.89.16-2.86.39-.48.82-1.03,1.28-1.63s.92-1.21,1.37-1.84h9c.38,0,.72-.17,1.03-.52.09-.1.17-.22.23-.34.2.03.43.07.7.11-.14,1.05-.25,2.1-.33,3.16s-.12,2.06-.12,3c0,2.41.15,4.57.46,6.49s.76,3.56,1.37,4.91,1.37,2.39,2.27,3.11,1.95,1.08,3.14,1.08c.58,0,1.22-.11,1.93-.33s1.52-.55,2.44-.98,1.96-.98,3.13-1.64c.91-.51,1.93-1.09,3.04-1.74,0,.47.02.93.05,1.38.05.62.15,1.18.3,1.68s.38.89.68,1.18.7.45,1.22.45c.39,0,.71-.09.96-.26s.48-.43.69-.76.43-.77.64-1.29.5-1.14.84-1.84c.69-1.42,1.46-2.8,2.31-4.14s1.68-2.54,2.47-3.61,1.51-1.96,2.14-2.66,1.08-1.14,1.35-1.31l.49.07s-.15.22-.3.52-.34.68-.55,1.15-.44,1-.68,1.59-.46,1.2-.66,1.83-.36,1.25-.49,1.86-.2,1.18-.2,1.68c0,.75.1,1.55.3,2.39s.51,1.62.91,2.33.93,1.3,1.56,1.76,1.38.69,2.24.69c.56,0,1.15-.09,1.77-.28s1.23-.43,1.85-.71,1.23-.62,1.84-1,1.18-.75,1.7-1.11c.49-.34.93-.67,1.34-.98.23.4.49.79.78,1.14.73.9,1.65,1.61,2.75,2.14s2.39.8,3.86.8c.94,0,1.86-.11,2.78-.32s1.8-.49,2.65-.84,1.66-.75,2.44-1.21,1.5-.91,2.17-1.38c.18-.13.36-.27.54-.4.02.36.02.72.06,1.07.07.59.21,1.11.42,1.57s.51.83.9,1.1.91.41,1.55.41c.28,0,.54-.05.77-.15s.45-.28.66-.53.4-.57.6-.97.4-.9.62-1.51l4.2-11.7h.38c.12.98.29,1.96.49,2.92s.52,1.83.94,2.6.99,1.4,1.71,1.88,1.66.71,2.84.71c.66,0,1.3-.1,1.93-.29.5-.15.97-.34,1.44-.56.09.52.21,1.04.36,1.54.37,1.18.92,2.22,1.65,3.12s1.65,1.61,2.75,2.14,2.39.8,3.86.8c.94,0,1.86-.11,2.78-.32s1.8-.49,2.65-.84,1.66-.75,2.44-1.21,1.5-.91,2.17-1.38c1.55-1.09,3.01-2.35,4.38-3.77l-3.02-3.14Zm-110.36-17.07c-.51.93-1,1.79-1.46,2.59-.25-.03-.49-.06-.73-.08s-.47-.05-.7-.08c.28-1.27.59-2.57.93-3.91s.7-2.57,1.08-3.69.78-2.04,1.2-2.75.82-1.08,1.23-1.08c.3,0,.53.06.69.19s.29.28.36.47.13.39.15.6.04.4.04.57c0,.5-.13,1.14-.4,1.92s-.6,1.62-1.01,2.52-.86,1.81-1.37,2.74Zm16.8-1.49c.34-1.34.7-2.57,1.08-3.69s.78-2.04,1.2-2.75.82-1.08,1.23-1.08c.3,0,.53.06.69.19s.29.28.36.47.13.39.15.6.04.4.04.57c0,.5-.13,1.14-.4,1.92s-.6,1.62-1.01,2.52-.86,1.81-1.37,2.74-1,1.79-1.46,2.59c-.25-.03-.49-.06-.73-.08s-.47-.05-.7-.08c.28-1.27.59-2.57.93-3.91Zm8.86,20.89c-.63.45-1.27.86-1.92,1.23s-1.27.7-1.85.97-1.12.49-1.62.64-.9.23-1.23.23c-.53,0-1.01-.08-1.44-.25s-.79-.43-1.09-.8-.52-.84-.68-1.42-.23-1.29-.23-2.13c0-.33,0-.69.01-1.08s.02-.8.04-1.22.03-.85.05-1.28.03-.85.05-1.25c.05-.94.1-1.89.16-2.86.39-.48.82-1.03,1.28-1.63s.92-1.21,1.37-1.84h9c.38,0,.72-.17,1.03-.52.17-.18.29-.4.36-.64-.02.22-.06.44-.08.67-.23,2.28-.41,4.45-.54,6.52-.1,1.68-.17,3.22-.2,4.66-.21.19-.42.39-.64.58-.58.49-1.18.96-1.82,1.41Zm8.92-11.52c-.5,1.16-.96,2.23-1.38,3.21.14-1.78.34-3.6.61-5.46.11-.8.24-1.64.39-2.52s.31-1.78.49-2.7.38-1.83.61-2.75.47-1.81.74-2.67c1.08-2.53,2.02-4.46,2.81-5.79s1.4-1.99,1.8-1.99c.31,0,.47.59.47,1.78,0,.78-.21,1.99-.62,3.63s-1.08,3.66-2,6.05c-.28.7-.64,1.56-1.07,2.57s-.89,2.08-1.37,3.21-.98,2.28-1.48,3.43Zm22.62,7.59c.03-.48.1-.98.2-1.5s.25-1.03.45-1.54.45-.96.77-1.36.72-.72,1.2-.97,1.05-.38,1.72-.38c.38,0,.69.23.95.68s.39,1.03.39,1.73c0,.5-.2,1.02-.59,1.55s-.87,1.02-1.44,1.48-1.19.82-1.85,1.11-1.28.43-1.84.43c0-.34.02-.76.05-1.24Zm38.7,0c.03-.48.1-.98.2-1.5s.25-1.03.45-1.54.45-.96.77-1.36.72-.72,1.2-.97,1.05-.38,1.72-.38c.38,0,.69.23.95.68s.39,1.03.39,1.73c0,.5-.2,1.02-.59,1.55s-.87,1.02-1.44,1.48-1.19.82-1.85,1.11-1.28.43-1.84.43c0-.34.02-.76.05-1.24Z"/>
</svg>